<svg viewBox="0 0 64 64" xmlns="http://www.w3.org/2000/svg">
  <defs>
    <linearGradient id="oceanGradient" x1="0%" y1="0%" x2="100%" y2="100%">
      <stop offset="0%" stop-color="#0ea5e9" />
      <stop offset="100%" stop-color="#0369a1" />
    </linearGradient>
  </defs>
  <rect width="64" height="64" rx="12" fill="url(#oceanGradient)" />
  <!-- Wave pattern -->
  <path d="M8,40 C16,32 24,48 32,40 C40,32 48,48 56,40 L56,56 L8,56 Z" fill="white" opacity="0.85" />
  <path d="M8,32 C16,24 24,40 32,32 C40,24 48,40 56,32 L56,56 L8,56 Z" fill="white" opacity="0.6" />
  <path d="M8,24 C16,16 24,32 32,24 C40,16 48,32 56,24 L56,56 L8,56 Z" fill="white" opacity="0.3" />
</svg>